<?xml version="1.0" standalone="no"?>
<!DOCTYPE svg PUBLIC "-//W3C//DTD SVG 20010904//EN"
 "http://www.w3.org/TR/2001/REC-SVG-20010904/DTD/svg10.dtd">
<svg version="1.0" xmlns="http://www.w3.org/2000/svg"
 width="410.000000pt" height="410.000000pt" viewBox="0 0 410.000000 410.000000"
 preserveAspectRatio="xMidYMid meet">

<g transform="translate(0.000000,410.000000) scale(0.100000,-0.100000)"
fill="#000000" stroke="none">
<path d="M543 3505 c-85 -23 -153 -63 -219 -129 -34 -34 -73 -85 -88 -114 -57
-113 -56 -81 -56 -1278 0 -691 4 -1121 10 -1155 33 -177 187 -338 360 -378 61
-14 2898 -15 2959 0 178 41 330 204 360 386 9 49 11 385 9 1188 l-3 1120 -23
60 c-48 127 -154 236 -279 287 l-58 23 -1460 2 c-1234 2 -1468 0 -1512 -12z
m2958 -273 c39 -20 62 -41 84 -77 l30 -48 3 -1106 c3 -1231 6 -1164 -66 -1234
-74 -72 44 -67 -1522 -67 -1253 0 -1415 2 -1448 16 -47 19 -88 58 -113 106
-18 36 -19 75 -19 1158 0 1083 1 1122 19 1158 11 20 32 49 48 64 64 61 -34 57
1514 58 l1417 0 53 -28z"/>
<path d="M942 2908 c-15 -15 -17 -1874 -2 -1898 8 -12 44 -16 204 -18 128 -2
202 1 216 8 20 10 20 18 20 365 0 340 1 355 19 365 12 6 127 10 304 10 251 0
286 2 291 16 3 9 6 82 6 164 0 111 -3 150 -13 159 -9 7 -111 12 -308 13 l-294
3 0 205 0 205 429 3 c297 1 433 6 443 13 10 9 13 53 13 190 0 148 -3 180 -16
193 -14 14 -87 16 -658 16 -486 0 -645 -3 -654 -12z"/>
<path d="M2652 2908 c-9 -9 -12 -136 -12 -510 l0 -498 -179 0 c-146 0 -181 -3
-191 -15 -15 -18 -43 25 304 -468 177 -251 286 -397 296 -397 9 0 24 8 32 18
55 62 579 826 576 840 -3 15 -25 18 -183 22 l-180 5 -3 494 c-1 345 -6 498
-13 508 -16 18 -429 19 -447 1z"/>
</g>
</svg>
